# xmcd
#
# Track frame offsets:
#	150
#	15982
#	37856
#	53617
#	67227
#	78389
#	93600
#	109283
#	125231
#	140395
#	157337
#	175448
#	191400
#	211389
#	227061
#	236922
#	256086
#	270588
#	284171
#	296413
#	310091
#	323966
#
# Disc length: 4568 seconds
#
# Revision: 3487956708
# Processed by: cddbd v1.5.2PL0 Copyright (c) Steve Scherf et al.
# Submitted via: EZCDAudioConverter 9.0.5.1
#
DISCID=4d11d616
DTITLE=Tommy Dell - The Heart and Soul CD 2
DYEAR=1999
DGENRE=
TTITLE0=Guardian Angel
TTITLE1=Love me for old times sake
TTITLE2=All I have to Offer you is me
TTITLE3=I could never love this way again
TTITLE4=Blue Eyes
TTITLE5=A father like you (Superman)
TTITLE6=Please Mr Barman
TTITLE7=Maria
TTITLE8=A bunch of Thyme
TTITLE9=I got to Get Rid of This Band
TTITLE10=Lady
TTITLE11=Teddy Bear's Last Ride
TTITLE12=Oh Lord, it's hard to be humble
TTITLE13=Blue moon of Kentucky
TTITLE14=Deck of Cards
TTITLE15=Love me for Old Times Sake
TTITLE16=Tequila Sheila
TTITLE17=I want you, I love you, I need you
TTITLE18=Down at the bluebird
TTITLE19=My Son
TTITLE20=Don't bring me flowers
TTITLE21=If I were a Poet
EXTD=
EXTT0=
EXTT1=
EXTT2=
EXTT3=
EXTT4=
EXTT5=
EXTT6=
EXTT7=
EXTT8=
EXTT9=
EXTT10=
EXTT11=
EXTT12=
EXTT13=
EXTT14=
EXTT15=
EXTT16=
EXTT17=
EXTT18=
EXTT19=
EXTT20=
EXTT21=
PLAYORDER=
